<mxfile host="65bd71144e">
    <diagram id="nuVeQg0KmDJDZD1_KSru" name="Page-1">
        <mxGraphModel dx="812" dy="1173" grid="1" gridSize="10" guides="1" tooltips="1" connect="1" arrows="1" fold="1" page="1" pageScale="1" pageWidth="827" pageHeight="1169" math="0" shadow="0">
            <root>
                <mxCell id="0"/>
                <mxCell id="1" parent="0"/>
                <mxCell id="163" value="" style="rhombus;whiteSpace=wrap;html=1;strokeColor=#432D57;fontColor=#ffffff;fillColor=#438C1F;" parent="1" vertex="1">
                    <mxGeometry x="280" y="690" width="120" height="60" as="geometry"/>
                </mxCell>
                <mxCell id="167" style="edgeStyle=orthogonalEdgeStyle;html=1;entryX=0;entryY=0.5;entryDx=0;entryDy=0;endArrow=none;endFill=0;shape=link;" parent="1" source="164" target="163" edge="1">
                    <mxGeometry relative="1" as="geometry"/>
                </mxCell>
                <mxCell id="164" value="" style="rounded=0;whiteSpace=wrap;html=1;strokeColor=#BD7000;fontColor=#000000;fillColor=#FF8000;" parent="1" vertex="1">
                    <mxGeometry x="180" y="590" width="140" height="60" as="geometry"/>
                </mxCell>
                <mxCell id="45" value="" style="html=1;endArrow=none;endFill=0;entryX=0.5;entryY=1;entryDx=0;entryDy=0;edgeStyle=orthogonalEdgeStyle;elbow=vertical;exitX=0;exitY=0.5;exitDx=0;exitDy=0;" parent="1" source="66" target="34" edge="1">
                    <mxGeometry relative="1" as="geometry">
                        <mxPoint x="190" y="300" as="sourcePoint"/>
                    </mxGeometry>
                </mxCell>
                <mxCell id="52" value="" style="edgeStyle=orthogonalEdgeStyle;html=1;endArrow=none;endFill=0;exitX=0.5;exitY=1;exitDx=0;exitDy=0;entryX=0.5;entryY=0;entryDx=0;entryDy=0;" parent="1" source="66" target="174" edge="1">
                    <mxGeometry relative="1" as="geometry">
                        <mxPoint x="250" y="320" as="sourcePoint"/>
                        <mxPoint x="250" y="360" as="targetPoint"/>
                    </mxGeometry>
                </mxCell>
                <mxCell id="5" value="&lt;font color=&quot;#ffffff&quot;&gt;Asignatura&lt;/font&gt;" style="rounded=0;whiteSpace=wrap;html=1;strokeColor=#C73500;fontColor=#000000;fillColor=#B33232;" parent="1" vertex="1">
                    <mxGeometry x="530" y="280" width="120" height="40" as="geometry"/>
                </mxCell>
                <mxCell id="169" style="edgeStyle=orthogonalEdgeStyle;html=1;entryX=1;entryY=0.5;entryDx=0;entryDy=0;endArrow=none;endFill=0;" parent="1" source="9" target="163" edge="1">
                    <mxGeometry relative="1" as="geometry"/>
                </mxCell>
                <mxCell id="170" value="" style="edgeStyle=orthogonalEdgeStyle;html=1;endArrow=none;endFill=0;" parent="1" source="9" target="11" edge="1">
                    <mxGeometry relative="1" as="geometry"/>
                </mxCell>
                <mxCell id="9" value="&lt;font color=&quot;#ffffff&quot;&gt;Edificio&lt;/font&gt;" style="rounded=0;whiteSpace=wrap;html=1;strokeColor=#C73500;fontColor=#000000;fillColor=#B33232;" parent="1" vertex="1">
                    <mxGeometry x="440" y="700" width="120" height="40" as="geometry"/>
                </mxCell>
                <mxCell id="10" value="" style="swimlane;startSize=0;fontColor=#000000;swimlaneFillColor=#6E6E16;strokeColor=none;fillColor=none;" parent="1" vertex="1">
                    <mxGeometry x="600" y="669.5" width="80" height="101" as="geometry"/>
                </mxCell>
                <mxCell id="12" value="Nombre" style="text;html=1;align=center;verticalAlign=middle;resizable=0;points=[];autosize=1;strokeColor=none;" parent="10" vertex="1">
                    <mxGeometry x="10" y="30" width="60" height="20" as="geometry"/>
                </mxCell>
                <mxCell id="13" value="Dirección" style="text;html=1;align=center;verticalAlign=middle;resizable=0;points=[];autosize=1;strokeColor=none;" parent="10" vertex="1">
                    <mxGeometry x="10" y="50" width="60" height="20" as="geometry"/>
                </mxCell>
                <mxCell id="14" value="m^2" style="text;html=1;align=center;verticalAlign=middle;resizable=0;points=[];autosize=1;strokeColor=none;" parent="10" vertex="1">
                    <mxGeometry x="10" y="70" width="40" height="20" as="geometry"/>
                </mxCell>
                <mxCell id="11" value="Código" style="text;html=1;align=center;verticalAlign=middle;resizable=0;points=[];autosize=1;strokeColor=none;" parent="10" vertex="1">
                    <mxGeometry x="10" y="10" width="50" height="20" as="geometry"/>
                </mxCell>
                <mxCell id="34" value="" style="swimlane;startSize=0;fontColor=#000000;swimlaneFillColor=#6E6E16;strokeColor=none;fillColor=none;" parent="1" vertex="1">
                    <mxGeometry x="5" y="160" width="150" height="120" as="geometry">
                        <mxRectangle x="200" y="170" width="50" height="40" as="alternateBounds"/>
                    </mxGeometry>
                </mxCell>
                <mxCell id="35" value="Nombre" style="text;html=1;align=center;verticalAlign=middle;resizable=0;points=[];autosize=1;strokeColor=none;" parent="34" vertex="1">
                    <mxGeometry x="10" y="30" width="60" height="20" as="geometry"/>
                </mxCell>
                <mxCell id="36" value="Apellidos" style="text;html=1;align=center;verticalAlign=middle;resizable=0;points=[];autosize=1;strokeColor=none;" parent="34" vertex="1">
                    <mxGeometry x="14" y="50" width="60" height="20" as="geometry"/>
                </mxCell>
                <mxCell id="37" value="Fecha nacimiento" style="text;html=1;align=center;verticalAlign=middle;resizable=0;points=[];autosize=1;strokeColor=none;" parent="34" vertex="1">
                    <mxGeometry x="14" y="70" width="110" height="20" as="geometry"/>
                </mxCell>
                <mxCell id="41" value="Teléfonos contacto" style="text;html=1;align=center;verticalAlign=middle;resizable=0;points=[];autosize=1;strokeColor=none;" parent="34" vertex="1">
                    <mxGeometry x="10" y="90" width="120" height="20" as="geometry"/>
                </mxCell>
                <mxCell id="43" value="DNI" style="text;html=1;align=center;verticalAlign=middle;resizable=0;points=[];autosize=1;strokeColor=none;" parent="34" vertex="1">
                    <mxGeometry x="10" y="10" width="40" height="20" as="geometry"/>
                </mxCell>
                <mxCell id="53" value="" style="edgeStyle=orthogonalEdgeStyle;html=1;endArrow=none;endFill=0;exitX=0.5;exitY=1;exitDx=0;exitDy=0;entryX=0.5;entryY=0;entryDx=0;entryDy=0;" parent="1" source="174" target="67" edge="1">
                    <mxGeometry relative="1" as="geometry">
                        <mxPoint x="270" y="410" as="sourcePoint"/>
                        <mxPoint x="240" y="460" as="targetPoint"/>
                    </mxGeometry>
                </mxCell>
                <mxCell id="151" value="" style="edgeStyle=orthogonalEdgeStyle;html=1;endArrow=none;endFill=0;" parent="1" source="47" edge="1">
                    <mxGeometry relative="1" as="geometry">
                        <mxPoint x="250" y="590" as="targetPoint"/>
                        <Array as="points">
                            <mxPoint x="250" y="580"/>
                            <mxPoint x="250" y="580"/>
                        </Array>
                    </mxGeometry>
                </mxCell>
                <mxCell id="47" value="Preparado" style="rhombus;whiteSpace=wrap;html=1;strokeColor=#432D57;fontColor=#ffffff;fillColor=#895791;" parent="1" vertex="1">
                    <mxGeometry x="200" y="515" width="100" height="40" as="geometry"/>
                </mxCell>
                <mxCell id="160" style="edgeStyle=orthogonalEdgeStyle;html=1;endArrow=none;endFill=0;entryX=1;entryY=0.5;entryDx=0;entryDy=0;" parent="1" source="48" target="164" edge="1">
                    <mxGeometry relative="1" as="geometry">
                        <mxPoint x="340" y="640" as="targetPoint"/>
                    </mxGeometry>
                </mxCell>
                <mxCell id="179" style="edgeStyle=orthogonalEdgeStyle;html=1;endArrow=none;endFill=0;entryX=0.5;entryY=1;entryDx=0;entryDy=0;" parent="1" source="48" target="175" edge="1">
                    <mxGeometry relative="1" as="geometry">
                        <mxPoint x="530" y="630" as="targetPoint"/>
                        <Array as="points">
                            <mxPoint x="420" y="660"/>
                            <mxPoint x="575" y="660"/>
                        </Array>
                    </mxGeometry>
                </mxCell>
                <mxCell id="48" value="Reserva" style="rhombus;whiteSpace=wrap;html=1;strokeColor=#432D57;fontColor=#ffffff;fillColor=#895791;" parent="1" vertex="1">
                    <mxGeometry x="370" y="600" width="100" height="40" as="geometry"/>
                </mxCell>
                <mxCell id="153" value="" style="edgeStyle=orthogonalEdgeStyle;html=1;endArrow=none;endFill=0;entryX=0;entryY=0.5;entryDx=0;entryDy=0;" parent="1" source="54" target="174" edge="1">
                    <mxGeometry relative="1" as="geometry">
                        <mxPoint x="200" y="380" as="targetPoint"/>
                    </mxGeometry>
                </mxCell>
                <mxCell id="54" value="" style="swimlane;startSize=0;fontColor=#ffffff;swimlaneFillColor=#4D6385;strokeColor=none;fillColor=none;" parent="1" vertex="1">
                    <mxGeometry x="5" y="350" width="150" height="60" as="geometry">
                        <mxRectangle y="260" width="50" height="40" as="alternateBounds"/>
                    </mxGeometry>
                </mxCell>
                <mxCell id="55" value="Fecha inicio de uso" style="text;html=1;align=center;verticalAlign=middle;resizable=0;points=[];autosize=1;strokeColor=none;" parent="54" vertex="1">
                    <mxGeometry x="10" y="30" width="120" height="20" as="geometry"/>
                </mxCell>
                <mxCell id="63" value="Instrumento" style="text;html=1;align=center;verticalAlign=middle;resizable=0;points=[];autosize=1;strokeColor=none;" parent="54" vertex="1">
                    <mxGeometry x="10" y="10" width="80" height="20" as="geometry"/>
                </mxCell>
                <mxCell id="86" value="" style="edgeStyle=orthogonalEdgeStyle;html=1;endArrow=none;endFill=0;entryX=0;entryY=0.5;entryDx=0;entryDy=0;" parent="1" source="66" target="172" edge="1">
                    <mxGeometry relative="1" as="geometry">
                        <mxPoint x="370" y="300" as="targetPoint"/>
                    </mxGeometry>
                </mxCell>
                <mxCell id="161" style="edgeStyle=orthogonalEdgeStyle;html=1;entryX=0.5;entryY=0;entryDx=0;entryDy=0;endArrow=none;endFill=0;exitX=1;exitY=0.75;exitDx=0;exitDy=0;" parent="1" source="66" target="48" edge="1">
                    <mxGeometry relative="1" as="geometry">
                        <Array as="points">
                            <mxPoint x="320" y="310"/>
                            <mxPoint x="320" y="580"/>
                            <mxPoint x="420" y="580"/>
                        </Array>
                    </mxGeometry>
                </mxCell>
                <mxCell id="66" value="&lt;font color=&quot;#ffffff&quot;&gt;Alumno&lt;/font&gt;" style="rounded=0;whiteSpace=wrap;html=1;strokeColor=#C73500;fontColor=#000000;fillColor=#B33232;" parent="1" vertex="1">
                    <mxGeometry x="190" y="280" width="120" height="40" as="geometry"/>
                </mxCell>
                <mxCell id="150" value="" style="edgeStyle=orthogonalEdgeStyle;html=1;endArrow=none;endFill=0;" parent="1" source="67" target="47" edge="1">
                    <mxGeometry relative="1" as="geometry"/>
                </mxCell>
                <mxCell id="67" value="&lt;font color=&quot;#ffffff&quot;&gt;Instrumento&lt;/font&gt;" style="rounded=0;whiteSpace=wrap;html=1;strokeColor=#C73500;fontColor=#000000;fillColor=#B33232;" parent="1" vertex="1">
                    <mxGeometry x="190" y="440" width="120" height="40" as="geometry"/>
                </mxCell>
                <mxCell id="113" value="" style="edgeStyle=orthogonalEdgeStyle;html=1;endArrow=none;endFill=0;" parent="1" source="68" target="112" edge="1">
                    <mxGeometry relative="1" as="geometry"/>
                </mxCell>
                <mxCell id="162" style="edgeStyle=orthogonalEdgeStyle;html=1;entryX=1;entryY=0.5;entryDx=0;entryDy=0;endArrow=none;endFill=0;" parent="1" source="68" target="48" edge="1">
                    <mxGeometry relative="1" as="geometry">
                        <Array as="points">
                            <mxPoint x="520" y="460"/>
                            <mxPoint x="520" y="620"/>
                        </Array>
                    </mxGeometry>
                </mxCell>
                <mxCell id="68" value="&lt;font color=&quot;#ffffff&quot;&gt;Profesor&lt;/font&gt;" style="rounded=0;whiteSpace=wrap;html=1;strokeColor=#C73500;fontColor=#000000;fillColor=#B33232;" parent="1" vertex="1">
                    <mxGeometry x="530" y="440" width="120" height="40" as="geometry"/>
                </mxCell>
                <mxCell id="131" style="edgeStyle=orthogonalEdgeStyle;html=1;endArrow=none;endFill=0;entryX=0.5;entryY=0;entryDx=0;entryDy=0;" parent="1" source="69" target="127" edge="1">
                    <mxGeometry relative="1" as="geometry">
                        <mxPoint x="420" y="510" as="targetPoint"/>
                    </mxGeometry>
                </mxCell>
                <mxCell id="69" value="&lt;font color=&quot;#ffffff&quot;&gt;Aula magistral&lt;/font&gt;" style="rounded=0;whiteSpace=wrap;html=1;strokeColor=#C73500;fontColor=#000000;fillColor=#B33232;" parent="1" vertex="1">
                    <mxGeometry x="360" y="420" width="120" height="40" as="geometry"/>
                </mxCell>
                <mxCell id="70" value="Aula instrumental" style="rounded=0;whiteSpace=wrap;html=1;strokeColor=#BD7000;fontColor=#000000;fillColor=#FF8000;" parent="1" vertex="1">
                    <mxGeometry x="190" y="600" width="120" height="40" as="geometry"/>
                </mxCell>
                <mxCell id="87" value="" style="edgeStyle=orthogonalEdgeStyle;html=1;endArrow=none;endFill=0;exitX=0.968;exitY=0.485;exitDx=0;exitDy=0;exitPerimeter=0;" parent="1" source="172" target="5" edge="1">
                    <mxGeometry relative="1" as="geometry">
                        <mxPoint x="470" y="300" as="sourcePoint"/>
                    </mxGeometry>
                </mxCell>
                <mxCell id="105" value="" style="edgeStyle=orthogonalEdgeStyle;html=1;endArrow=none;endFill=0;entryX=0.5;entryY=0;entryDx=0;entryDy=0;exitX=0.5;exitY=1;exitDx=0;exitDy=0;" parent="1" source="171" target="68" edge="1">
                    <mxGeometry relative="1" as="geometry">
                        <mxPoint x="590" y="400" as="sourcePoint"/>
                        <Array as="points">
                            <mxPoint x="610" y="390"/>
                            <mxPoint x="640" y="390"/>
                            <mxPoint x="640" y="420"/>
                            <mxPoint x="590" y="420"/>
                        </Array>
                    </mxGeometry>
                </mxCell>
                <mxCell id="106" value="" style="edgeStyle=orthogonalEdgeStyle;html=1;endArrow=none;endFill=0;exitX=0.5;exitY=0;exitDx=0;exitDy=0;" parent="1" source="171" target="5" edge="1">
                    <mxGeometry relative="1" as="geometry">
                        <mxPoint x="590" y="360" as="sourcePoint"/>
                    </mxGeometry>
                </mxCell>
                <mxCell id="133" value="" style="edgeStyle=orthogonalEdgeStyle;html=1;endArrow=none;endFill=0;exitX=0.5;exitY=1;exitDx=0;exitDy=0;" parent="1" source="173" target="69" edge="1">
                    <mxGeometry relative="1" as="geometry">
                        <mxPoint x="420" y="400" as="sourcePoint"/>
                    </mxGeometry>
                </mxCell>
                <mxCell id="134" style="edgeStyle=orthogonalEdgeStyle;html=1;entryX=0;entryY=0.75;entryDx=0;entryDy=0;endArrow=none;endFill=0;exitX=0.5;exitY=0;exitDx=0;exitDy=0;" parent="1" source="173" target="5" edge="1">
                    <mxGeometry relative="1" as="geometry">
                        <mxPoint x="420" y="360" as="sourcePoint"/>
                        <Array as="points">
                            <mxPoint x="420" y="340"/>
                            <mxPoint x="490" y="340"/>
                            <mxPoint x="490" y="310"/>
                        </Array>
                    </mxGeometry>
                </mxCell>
                <mxCell id="85" style="edgeStyle=orthogonalEdgeStyle;html=1;entryX=0;entryY=0.5;entryDx=0;entryDy=0;endArrow=none;endFill=0;" parent="1" source="75" target="67" edge="1">
                    <mxGeometry relative="1" as="geometry"/>
                </mxCell>
                <mxCell id="75" value="" style="swimlane;startSize=0;fontColor=#000000;swimlaneFillColor=#6E6E16;strokeColor=none;fillColor=none;" parent="1" vertex="1">
                    <mxGeometry x="5" y="450" width="160" height="80" as="geometry"/>
                </mxCell>
                <mxCell id="76" value="Clase" style="text;html=1;align=center;verticalAlign=middle;resizable=0;points=[];autosize=1;strokeColor=none;" parent="75" vertex="1">
                    <mxGeometry x="5" y="30" width="50" height="20" as="geometry"/>
                </mxCell>
                <mxCell id="77" value="Edad recom. comienzo" style="text;html=1;align=center;verticalAlign=middle;resizable=0;points=[];autosize=1;strokeColor=none;" parent="75" vertex="1">
                    <mxGeometry x="5" y="50" width="140" height="20" as="geometry"/>
                </mxCell>
                <mxCell id="84" value="Nombre" style="text;html=1;align=center;verticalAlign=middle;resizable=0;points=[];autosize=1;strokeColor=none;" parent="75" vertex="1">
                    <mxGeometry x="10" y="10" width="60" height="20" as="geometry"/>
                </mxCell>
                <mxCell id="93" value="" style="edgeStyle=orthogonalEdgeStyle;html=1;endArrow=none;endFill=0;entryX=0.5;entryY=0;entryDx=0;entryDy=0;" parent="1" source="88" target="172" edge="1">
                    <mxGeometry relative="1" as="geometry">
                        <mxPoint x="420" y="280" as="targetPoint"/>
                    </mxGeometry>
                </mxCell>
                <mxCell id="88" value="" style="swimlane;startSize=0;fontColor=#000000;swimlaneFillColor=#4D6385;strokeColor=none;fillColor=none;" parent="1" vertex="1">
                    <mxGeometry x="385" y="190" width="70" height="60" as="geometry">
                        <mxRectangle x="385" y="180" width="50" height="40" as="alternateBounds"/>
                    </mxGeometry>
                </mxCell>
                <mxCell id="89" value="Nota" style="text;html=1;align=center;verticalAlign=middle;resizable=0;points=[];autosize=1;strokeColor=none;" parent="88" vertex="1">
                    <mxGeometry x="15" y="30" width="40" height="20" as="geometry"/>
                </mxCell>
                <mxCell id="90" value="Curso" style="text;html=1;align=center;verticalAlign=middle;resizable=0;points=[];autosize=1;strokeColor=none;" parent="88" vertex="1">
                    <mxGeometry x="10" y="10" width="50" height="20" as="geometry"/>
                </mxCell>
                <mxCell id="104" value="" style="edgeStyle=orthogonalEdgeStyle;html=1;endArrow=none;endFill=0;" parent="1" source="94" target="5" edge="1">
                    <mxGeometry relative="1" as="geometry"/>
                </mxCell>
                <mxCell id="94" value="" style="swimlane;startSize=0;fontColor=#000000;swimlaneFillColor=#6E6E16;strokeColor=none;fillColor=none;" parent="1" vertex="1">
                    <mxGeometry x="680" y="205" width="80" height="75" as="geometry"/>
                </mxCell>
                <mxCell id="95" value="Nombre" style="text;html=1;align=center;verticalAlign=middle;resizable=0;points=[];autosize=1;" parent="94" vertex="1">
                    <mxGeometry x="10" y="30" width="60" height="20" as="geometry"/>
                </mxCell>
                <mxCell id="96" value="Horario" style="text;html=1;align=center;verticalAlign=middle;resizable=0;points=[];autosize=1;strokeColor=none;" parent="94" vertex="1">
                    <mxGeometry x="15" y="50" width="50" height="20" as="geometry"/>
                </mxCell>
                <mxCell id="103" value="Código" style="text;html=1;align=center;verticalAlign=middle;resizable=0;points=[];autosize=1;strokeColor=none;" parent="94" vertex="1">
                    <mxGeometry x="15" y="10" width="50" height="20" as="geometry"/>
                </mxCell>
                <mxCell id="107" value="" style="swimlane;startSize=0;fontColor=#000000;swimlaneFillColor=#6E6E16;strokeColor=none;fillColor=none;" parent="1" vertex="1">
                    <mxGeometry x="677" y="380" width="150" height="160" as="geometry">
                        <mxRectangle x="677" y="380" width="50" height="40" as="alternateBounds"/>
                    </mxGeometry>
                </mxCell>
                <mxCell id="108" value="Nombre" style="text;html=1;align=center;verticalAlign=middle;resizable=0;points=[];autosize=1;strokeColor=none;" parent="107" vertex="1">
                    <mxGeometry x="10" y="30" width="60" height="20" as="geometry"/>
                </mxCell>
                <mxCell id="109" value="Apellidos" style="text;html=1;align=center;verticalAlign=middle;resizable=0;points=[];autosize=1;" parent="107" vertex="1">
                    <mxGeometry x="14" y="50" width="60" height="20" as="geometry"/>
                </mxCell>
                <mxCell id="110" value="Fecha nacimiento" style="text;html=1;align=center;verticalAlign=middle;resizable=0;points=[];autosize=1;strokeColor=none;" parent="107" vertex="1">
                    <mxGeometry x="14" y="70" width="110" height="20" as="geometry"/>
                </mxCell>
                <mxCell id="111" value="Teléfonos contacto" style="text;html=1;align=center;verticalAlign=middle;resizable=0;points=[];autosize=1;strokeColor=none;" parent="107" vertex="1">
                    <mxGeometry x="10" y="90" width="120" height="20" as="geometry"/>
                </mxCell>
                <mxCell id="112" value="DNI" style="text;html=1;align=center;verticalAlign=middle;resizable=0;points=[];autosize=1;strokeColor=none;" parent="107" vertex="1">
                    <mxGeometry x="10" y="10" width="40" height="20" as="geometry"/>
                </mxCell>
                <mxCell id="114" value="Instrumentos que toca" style="text;html=1;align=center;verticalAlign=middle;resizable=0;points=[];autosize=1;strokeColor=none;" parent="107" vertex="1">
                    <mxGeometry x="14" y="130" width="130" height="20" as="geometry"/>
                </mxCell>
                <mxCell id="116" value="Títulos" style="text;html=1;align=center;verticalAlign=middle;resizable=0;points=[];autosize=1;strokeColor=none;" parent="107" vertex="1">
                    <mxGeometry x="14" y="110" width="50" height="20" as="geometry"/>
                </mxCell>
                <mxCell id="123" value="" style="swimlane;startSize=0;fontColor=#000000;swimlaneFillColor=#4D6385;strokeColor=none;fillColor=none;" parent="1" vertex="1">
                    <mxGeometry x="680" y="310" width="70" height="40" as="geometry">
                        <mxRectangle x="385" y="180" width="50" height="40" as="alternateBounds"/>
                    </mxGeometry>
                </mxCell>
                <mxCell id="125" value="Curso" style="text;html=1;align=center;verticalAlign=middle;resizable=0;points=[];autosize=1;strokeColor=none;" parent="123" vertex="1">
                    <mxGeometry x="10" y="10" width="50" height="20" as="geometry"/>
                </mxCell>
                <mxCell id="126" style="edgeStyle=orthogonalEdgeStyle;html=1;entryX=1;entryY=0.5;entryDx=0;entryDy=0;endArrow=none;endFill=0;exitX=0;exitY=0.5;exitDx=0;exitDy=0;" parent="1" source="123" target="171" edge="1">
                    <mxGeometry relative="1" as="geometry">
                        <mxPoint x="670" y="340" as="sourcePoint"/>
                        <mxPoint x="640" y="380" as="targetPoint"/>
                    </mxGeometry>
                </mxCell>
                <mxCell id="127" value="" style="swimlane;startSize=0;fontColor=#000000;swimlaneFillColor=#6E6E16;strokeColor=none;fillColor=none;" parent="1" vertex="1">
                    <mxGeometry x="329.25" y="480" width="181.5" height="80" as="geometry">
                        <mxRectangle x="329.25" y="480" width="50" height="40" as="alternateBounds"/>
                    </mxGeometry>
                </mxCell>
                <mxCell id="128" value="Aforo alumnos" style="text;html=1;align=center;verticalAlign=middle;resizable=0;points=[];autosize=1;" parent="127" vertex="1">
                    <mxGeometry x="15" y="30" width="90" height="20" as="geometry"/>
                </mxCell>
                <mxCell id="129" value="Dispone de ordenador" style="text;html=1;align=center;verticalAlign=middle;resizable=0;points=[];autosize=1;strokeColor=none;" parent="127" vertex="1">
                    <mxGeometry x="15" y="50" width="130" height="20" as="geometry"/>
                </mxCell>
                <mxCell id="130" value="Código" style="text;html=1;align=center;verticalAlign=middle;resizable=0;points=[];autosize=1;strokeColor=none;" parent="127" vertex="1">
                    <mxGeometry x="15" y="10" width="50" height="20" as="geometry"/>
                </mxCell>
                <mxCell id="149" value="" style="edgeStyle=orthogonalEdgeStyle;html=1;endArrow=none;endFill=0;exitX=0.5;exitY=0;exitDx=0;exitDy=0;entryX=0;entryY=0.5;entryDx=0;entryDy=0;" parent="1" source="154" target="164" edge="1">
                    <mxGeometry relative="1" as="geometry">
                        <mxPoint x="105" y="680" as="sourcePoint"/>
                        <mxPoint x="150" y="600" as="targetPoint"/>
                    </mxGeometry>
                </mxCell>
                <mxCell id="154" value="" style="swimlane;startSize=0;fontColor=#000000;swimlaneFillColor=#6E6E16;strokeColor=none;fillColor=none;" parent="1" vertex="1">
                    <mxGeometry x="5" y="680" width="200" height="80" as="geometry">
                        <mxRectangle x="329.25" y="520" width="50" height="40" as="alternateBounds"/>
                    </mxGeometry>
                </mxCell>
                <mxCell id="155" value="Instrumentos permitidos" style="text;html=1;align=center;verticalAlign=middle;resizable=0;points=[];autosize=1;" parent="154" vertex="1">
                    <mxGeometry x="15" y="30" width="140" height="20" as="geometry"/>
                </mxCell>
                <mxCell id="156" value="Aforo para tipo de instrumento" style="text;html=1;align=center;verticalAlign=middle;resizable=0;points=[];autosize=1;strokeColor=none;" parent="154" vertex="1">
                    <mxGeometry x="10" y="50" width="180" height="20" as="geometry"/>
                </mxCell>
                <mxCell id="157" value="Código" style="text;html=1;align=center;verticalAlign=middle;resizable=0;points=[];autosize=1;strokeColor=none;" parent="154" vertex="1">
                    <mxGeometry x="15" y="10" width="50" height="20" as="geometry"/>
                </mxCell>
                <mxCell id="159" value="Pertenece" style="rhombus;whiteSpace=wrap;html=1;strokeColor=#432D57;fontColor=#ffffff;fillColor=#438C1F;" parent="1" vertex="1">
                    <mxGeometry x="290" y="695" width="100" height="50" as="geometry"/>
                </mxCell>
                <mxCell id="171" value="Imparte" style="rhombus;whiteSpace=wrap;html=1;strokeColor=#432D57;fontColor=#ffffff;fillColor=#895791;" parent="1" vertex="1">
                    <mxGeometry x="560" y="340" width="100" height="40" as="geometry"/>
                </mxCell>
                <mxCell id="172" value="Matriculados" style="rhombus;whiteSpace=wrap;html=1;strokeColor=#432D57;fontColor=#ffffff;fillColor=#895791;" parent="1" vertex="1">
                    <mxGeometry x="370" y="280" width="100" height="40" as="geometry"/>
                </mxCell>
                <mxCell id="173" value="Imparte" style="rhombus;whiteSpace=wrap;html=1;strokeColor=#432D57;fontColor=#ffffff;fillColor=#895791;" parent="1" vertex="1">
                    <mxGeometry x="370" y="360" width="100" height="40" as="geometry"/>
                </mxCell>
                <mxCell id="174" value="Toca" style="rhombus;whiteSpace=wrap;html=1;strokeColor=#432D57;fontColor=#ffffff;fillColor=#895791;" parent="1" vertex="1">
                    <mxGeometry x="200" y="360" width="100" height="40" as="geometry"/>
                </mxCell>
                <mxCell id="175" value="" style="swimlane;startSize=0;fontColor=#000000;swimlaneFillColor=#4D6385;strokeColor=none;fillColor=none;" parent="1" vertex="1">
                    <mxGeometry x="540" y="555" width="70" height="60" as="geometry">
                        <mxRectangle x="385" y="180" width="50" height="40" as="alternateBounds"/>
                    </mxGeometry>
                </mxCell>
                <mxCell id="176" value="Horario" style="text;html=1;align=center;verticalAlign=middle;resizable=0;points=[];autosize=1;strokeColor=none;" parent="175" vertex="1">
                    <mxGeometry x="10" y="30" width="50" height="20" as="geometry"/>
                </mxCell>
                <mxCell id="177" value="Fecha" style="text;html=1;align=center;verticalAlign=middle;resizable=0;points=[];autosize=1;strokeColor=none;" parent="175" vertex="1">
                    <mxGeometry x="10" y="10" width="50" height="20" as="geometry"/>
                </mxCell>
                <mxCell id="185" style="edgeStyle=orthogonalEdgeStyle;html=1;endArrow=none;endFill=0;" parent="1" source="184" edge="1">
                    <mxGeometry relative="1" as="geometry">
                        <mxPoint x="580" y="320" as="targetPoint"/>
                        <Array as="points">
                            <mxPoint x="550" y="345"/>
                            <mxPoint x="580" y="345"/>
                            <mxPoint x="580" y="320"/>
                        </Array>
                    </mxGeometry>
                </mxCell>
                <mxCell id="186" style="edgeStyle=orthogonalEdgeStyle;html=1;entryX=0.25;entryY=0;entryDx=0;entryDy=0;endArrow=none;endFill=0;" parent="1" source="184" target="68" edge="1">
                    <mxGeometry relative="1" as="geometry"/>
                </mxCell>
                <mxCell id="184" value="Puede imp." style="rhombus;whiteSpace=wrap;html=1;strokeColor=#432D57;fontColor=#ffffff;fillColor=#895791;" parent="1" vertex="1">
                    <mxGeometry x="500" y="380" width="100" height="40" as="geometry"/>
                </mxCell>
                <mxCell id="187" value="(1,N)" style="text;html=1;strokeColor=none;fillColor=none;align=center;verticalAlign=middle;whiteSpace=wrap;rounded=0;" vertex="1" parent="1">
                    <mxGeometry x="210" y="320" width="40" height="20" as="geometry"/>
                </mxCell>
                <mxCell id="188" value="(1,N)" style="text;html=1;strokeColor=none;fillColor=none;align=center;verticalAlign=middle;whiteSpace=wrap;rounded=0;" vertex="1" parent="1">
                    <mxGeometry x="210" y="420" width="40" height="20" as="geometry"/>
                </mxCell>
                <mxCell id="189" value="1:N" style="text;html=1;strokeColor=none;fillColor=none;align=center;verticalAlign=middle;whiteSpace=wrap;rounded=0;" vertex="1" parent="1">
                    <mxGeometry x="280" y="380" width="40" height="20" as="geometry"/>
                </mxCell>
                <mxCell id="190" value="(N,1)" style="text;html=1;strokeColor=none;fillColor=none;align=center;verticalAlign=middle;whiteSpace=wrap;rounded=0;" vertex="1" parent="1">
                    <mxGeometry x="210" y="480" width="40" height="20" as="geometry"/>
                </mxCell>
                <mxCell id="191" value="(1,M)" style="text;html=1;strokeColor=none;fillColor=none;align=center;verticalAlign=middle;whiteSpace=wrap;rounded=0;" vertex="1" parent="1">
                    <mxGeometry x="210" y="570" width="40" height="20" as="geometry"/>
                </mxCell>
                <mxCell id="192" value="N:M" style="text;html=1;strokeColor=none;fillColor=none;align=center;verticalAlign=middle;whiteSpace=wrap;rounded=0;" vertex="1" parent="1">
                    <mxGeometry x="280" y="540" width="40" height="20" as="geometry"/>
                </mxCell>
                <mxCell id="193" value="(1,1)" style="text;html=1;strokeColor=none;fillColor=none;align=center;verticalAlign=middle;whiteSpace=wrap;rounded=0;" vertex="1" parent="1">
                    <mxGeometry x="400" y="700" width="40" height="20" as="geometry"/>
                </mxCell>
                <mxCell id="194" value="(1,N)" style="text;html=1;strokeColor=none;fillColor=none;align=center;verticalAlign=middle;whiteSpace=wrap;rounded=0;" vertex="1" parent="1">
                    <mxGeometry x="250" y="650" width="40" height="20" as="geometry"/>
                </mxCell>
                <mxCell id="195" value="1:N" style="text;html=1;strokeColor=none;fillColor=none;align=center;verticalAlign=middle;whiteSpace=wrap;rounded=0;" vertex="1" parent="1">
                    <mxGeometry x="320" y="750.5" width="40" height="20" as="geometry"/>
                </mxCell>
                <mxCell id="197" value="(1,N)" style="text;html=1;strokeColor=none;fillColor=none;align=center;verticalAlign=middle;whiteSpace=wrap;rounded=0;" vertex="1" parent="1">
                    <mxGeometry x="310" y="280" width="40" height="20" as="geometry"/>
                </mxCell>
                <mxCell id="198" value="(N,1)" style="text;html=1;strokeColor=none;fillColor=none;align=center;verticalAlign=middle;whiteSpace=wrap;rounded=0;" vertex="1" parent="1">
                    <mxGeometry x="490" y="280" width="40" height="20" as="geometry"/>
                </mxCell>
                <mxCell id="199" value="1:N" style="text;html=1;strokeColor=none;fillColor=none;align=center;verticalAlign=middle;whiteSpace=wrap;rounded=0;" vertex="1" parent="1">
                    <mxGeometry x="430" y="310" width="40" height="20" as="geometry"/>
                </mxCell>
                <mxCell id="200" value="(1,N)" style="text;html=1;strokeColor=none;fillColor=none;align=center;verticalAlign=middle;whiteSpace=wrap;rounded=0;" vertex="1" parent="1">
                    <mxGeometry x="490" y="320" width="40" height="20" as="geometry"/>
                </mxCell>
                <mxCell id="203" value="(1,1)" style="text;html=1;strokeColor=none;fillColor=none;align=center;verticalAlign=middle;whiteSpace=wrap;rounded=0;" vertex="1" parent="1">
                    <mxGeometry x="380" y="400" width="40" height="20" as="geometry"/>
                </mxCell>
                <mxCell id="204" value="1:N" style="text;html=1;strokeColor=none;fillColor=none;align=center;verticalAlign=middle;whiteSpace=wrap;rounded=0;" vertex="1" parent="1">
                    <mxGeometry x="450" y="380" width="40" height="20" as="geometry"/>
                </mxCell>
                <mxCell id="206" value="(1,M,P)" style="text;html=1;strokeColor=none;fillColor=none;align=center;verticalAlign=middle;whiteSpace=wrap;rounded=0;" vertex="1" parent="1">
                    <mxGeometry x="320" y="320" width="40" height="20" as="geometry"/>
                </mxCell>
                <mxCell id="209" value="(1,N,P)" style="text;html=1;strokeColor=none;fillColor=none;align=center;verticalAlign=middle;whiteSpace=wrap;rounded=0;" vertex="1" parent="1">
                    <mxGeometry x="320" y="600" width="40" height="20" as="geometry"/>
                </mxCell>
                <mxCell id="210" value="(1,N,M)" style="text;html=1;strokeColor=none;fillColor=none;align=center;verticalAlign=middle;whiteSpace=wrap;rounded=0;" vertex="1" parent="1">
                    <mxGeometry x="530" y="480" width="40" height="20" as="geometry"/>
                </mxCell>
                <mxCell id="211" value="N:M:P" style="text;html=1;strokeColor=none;fillColor=none;align=center;verticalAlign=middle;whiteSpace=wrap;rounded=0;" vertex="1" parent="1">
                    <mxGeometry x="440" y="630" width="40" height="20" as="geometry"/>
                </mxCell>
                <mxCell id="213" value="(1,P)" style="text;html=1;strokeColor=none;fillColor=none;align=center;verticalAlign=middle;whiteSpace=wrap;rounded=0;" vertex="1" parent="1">
                    <mxGeometry x="600" y="420" width="40" height="20" as="geometry"/>
                </mxCell>
                <mxCell id="214" value="(1,N)" style="text;html=1;strokeColor=none;fillColor=none;align=center;verticalAlign=middle;whiteSpace=wrap;rounded=0;" vertex="1" parent="1">
                    <mxGeometry x="610" y="320" width="40" height="20" as="geometry"/>
                </mxCell>
                <mxCell id="215" value="(N,1)" style="text;html=1;strokeColor=none;fillColor=none;align=center;verticalAlign=middle;whiteSpace=wrap;rounded=0;" vertex="1" parent="1">
                    <mxGeometry x="540" y="320" width="40" height="20" as="geometry"/>
                </mxCell>
                <mxCell id="216" value="1:P" style="text;html=1;strokeColor=none;fillColor=none;align=center;verticalAlign=middle;whiteSpace=wrap;rounded=0;" vertex="1" parent="1">
                    <mxGeometry x="630" y="370" width="40" height="20" as="geometry"/>
                </mxCell>
                <mxCell id="217" value="(1,P)" style="text;html=1;strokeColor=none;fillColor=none;align=center;verticalAlign=middle;whiteSpace=wrap;rounded=0;" vertex="1" parent="1">
                    <mxGeometry x="510.75" y="420" width="40" height="20" as="geometry"/>
                </mxCell>
                <mxCell id="218" value="N:P" style="text;html=1;strokeColor=none;fillColor=none;align=center;verticalAlign=middle;whiteSpace=wrap;rounded=0;" vertex="1" parent="1">
                    <mxGeometry x="490" y="370" width="40" height="20" as="geometry"/>
                </mxCell>
            </root>
        </mxGraphModel>
    </diagram>
</mxfile>